<?xml version="1.0" encoding="utf-8"?>
<!-- Generator: Adobe Illustrator 25.2.0, SVG Export Plug-In . SVG Version: 6.00 Build 0)  -->
<svg version="1.1" id="Capa_1" xmlns="http://www.w3.org/2000/svg" xmlns:xlink="http://www.w3.org/1999/xlink" x="0px" y="0px"
	 viewBox="0 0 105.2 95.6" style="enable-background:new 0 0 105.2 95.6;" xml:space="preserve">
<style type="text/css">
	.st0{fill:url(#SVGID_1_);}
	.st1{fill:#6F388D;}
	.st2{fill:#EA4E4C;}
	.st3{fill:url(#SVGID_2_);}
	.st4{fill:url(#SVGID_3_);}
	.st5{fill:url(#SVGID_4_);}
	.st6{fill:#F29423;}
	.st7{fill:#FFCC00;}
	.st8{fill:#F0811E;}
	.st9{fill:#544E9C;}
	.st10{fill:#FFFFFF;}
	.st11{fill:url(#SVGID_5_);}
	.st12{fill:url(#SVGID_6_);}
	.st13{fill:url(#SVGID_7_);}
	.st14{fill:url(#SVGID_8_);}
	.st15{fill:url(#SVGID_9_);}
	.st16{fill:url(#SVGID_10_);}
	.st17{fill:#1F1B1E;}
	.st18{fill:#FFFFFF;stroke:#E3E3E3;stroke-width:0.7087;stroke-miterlimit:10;}
	.st19{opacity:0.1;fill:#6F388D;}
	.st20{opacity:0.1;fill:#F29423;}
	.st21{opacity:0.1;fill:#EA4E4C;}
	.st22{fill:url(#SVGID_11_);}
	.st23{opacity:0.52;fill:#FFFFFF;}
	.st24{fill:url(#SVGID_12_);}
	.st25{fill:#F1860B;}
	.st26{fill:#525C6F;}
	.st27{fill:#ED696B;}
</style>
<rect class="st26" width="105.2" height="95.6"/>
<g>
	<path class="st10" d="M32.9,64.2c-0.2,0.6-0.5,1.2-0.9,1.7c-0.4,0.5-0.8,0.9-1.4,1.2c-0.5,0.3-1.1,0.5-1.8,0.5c-0.3,0-0.7,0-1-0.1
		c-0.3-0.1-0.6-0.2-0.9-0.3c-0.3-0.1-0.6-0.3-0.8-0.4c-0.3-0.2-0.5-0.3-0.7-0.5v-9.6l3.5,0c0.7,0,1.4,0.2,1.9,0.5
		c0.5,0.3,1,0.8,1.3,1.3c0.3,0.5,0.6,1.1,0.8,1.8c0.2,0.7,0.2,1.3,0.2,2C33.2,62.9,33.1,63.6,32.9,64.2z M31.7,60.7
		c-0.1-0.6-0.3-1.1-0.6-1.5c-0.3-0.5-0.6-0.8-1.1-1.1c-0.5-0.3-1.1-0.4-1.8-0.5h-1.4V66c0.2,0.2,0.5,0.4,0.8,0.5
		c0.3,0.2,0.7,0.2,1.1,0.2c0.5,0,1-0.1,1.4-0.4c0.4-0.3,0.7-0.6,1-1c0.3-0.4,0.5-0.9,0.6-1.4c0.1-0.5,0.2-1,0.2-1.5
		C31.8,61.8,31.8,61.2,31.7,60.7z"/>
	<path class="st10" d="M38.2,67.3c-0.6,0.3-1.2,0.4-2,0.4c-0.3,0-0.7-0.1-1-0.2c-0.3-0.1-0.6-0.3-0.8-0.5c-0.2-0.2-0.4-0.5-0.5-0.8
		c-0.1-0.3-0.2-0.6-0.2-1c0-0.4,0.1-0.7,0.2-1c0.1-0.3,0.3-0.5,0.6-0.7c0.2-0.2,0.5-0.4,0.8-0.5c0.3-0.1,0.6-0.2,1-0.2h2v-0.7
		c0-0.2,0-0.4-0.1-0.6c-0.1-0.2-0.2-0.3-0.4-0.5c-0.1-0.1-0.3-0.2-0.5-0.3c-0.2-0.1-0.4-0.1-0.6-0.1c-0.4,0-0.7,0-1,0.1
		c-0.3,0.1-0.6,0.2-1,0.4l-0.3-0.7c0.4-0.2,0.9-0.4,1.2-0.5c0.4-0.1,0.8-0.1,1.4-0.1c0.3,0,0.6,0.1,0.9,0.2c0.3,0.1,0.6,0.2,0.8,0.4
		c0.2,0.2,0.4,0.4,0.6,0.7c0.1,0.3,0.2,0.6,0.2,0.9v4.3C39.3,66.7,38.8,67,38.2,67.3z M38.4,63.6c-0.2,0-0.4,0-0.7,0
		c-0.3,0-0.6,0-0.9,0c-0.5,0-0.9,0.1-1.2,0.4c-0.3,0.3-0.5,0.6-0.5,1.1c0,0.2,0,0.4,0.1,0.6c0.1,0.2,0.2,0.4,0.4,0.5
		c0.2,0.2,0.3,0.3,0.5,0.4c0.2,0.1,0.4,0.1,0.7,0.1c0.4,0,0.7-0.1,1-0.2c0.3-0.1,0.5-0.3,0.6-0.4V63.6z"/>
	<path class="st10" d="M40.9,57.4c0-0.2,0.1-0.4,0.2-0.6c0.2-0.2,0.4-0.2,0.6-0.2s0.4,0.1,0.6,0.2c0.2,0.2,0.2,0.4,0.2,0.6
		c0,0.2-0.1,0.4-0.2,0.6c-0.2,0.2-0.4,0.2-0.6,0.2c-0.2,0-0.4-0.1-0.6-0.2C41,57.8,40.9,57.6,40.9,57.4L40.9,57.4z M41.1,60.2
		l1.2-0.4v7.7h-1.2V60.2z"/>
	<path class="st10" d="M44.5,67.2c-0.5-0.3-0.7-0.8-0.7-1.5V56l1.2-0.4v10.1c0,0.5,0.1,0.8,0.4,1c0.3,0.2,0.6,0.3,1,0.3v0.7
		C45.6,67.7,45,67.6,44.5,67.2z"/>
	<path class="st10" d="M48.2,65c0,0.6,0.2,1,0.5,1.3c0.4,0.3,0.8,0.4,1.4,0.4c0.3,0,0.7-0.1,1-0.2c0.3-0.1,0.6-0.3,0.8-0.4V60h1.2
		v6.8c0,0.2,0,0.5,0,0.7c0,0.3,0,0.5-0.1,0.8c0,0.3-0.1,0.5-0.1,0.8c-0.1,0.2-0.1,0.4-0.2,0.6c-0.2,0.3-0.4,0.6-0.7,0.8
		c-0.3,0.2-0.6,0.4-0.9,0.5c-0.3,0.1-0.7,0.2-1.1,0.3c-0.4,0.1-0.7,0.1-1,0.1l-0.2-0.8c0.2,0,0.5-0.1,0.8-0.1c0.3,0,0.6-0.1,0.8-0.2
		c0.3-0.1,0.5-0.2,0.7-0.4c0.2-0.1,0.4-0.3,0.5-0.6c0.1-0.1,0.1-0.3,0.2-0.4c0-0.2,0.1-0.3,0.1-0.5c0-0.2,0-0.4,0-0.5
		c0-0.2,0-0.3,0-0.5c0-0.1,0-0.1,0-0.2c0,0,0-0.1,0-0.2c-0.2,0.1-0.5,0.2-0.9,0.4c-0.4,0.1-1,0.2-1.7,0.2c-0.3,0-0.6,0-0.9-0.1
		c-0.3-0.1-0.5-0.2-0.8-0.4c-0.2-0.2-0.4-0.4-0.6-0.7c-0.1-0.3-0.2-0.6-0.2-0.9v-5.2l1.3-0.4V65L48.2,65z"/>
	<path class="st10" d="M62.1,57.5H59v9.9h-1.3v-9.9h-3.2l0.4-0.8l7.3,0V57.5z"/>
	<path class="st10" d="M65.5,67.3c-0.6,0.3-1.2,0.4-2,0.4c-0.3,0-0.7-0.1-1-0.2c-0.3-0.1-0.6-0.3-0.8-0.5c-0.2-0.2-0.4-0.5-0.5-0.8
		c-0.1-0.3-0.2-0.6-0.2-1c0-0.4,0.1-0.7,0.2-1c0.1-0.3,0.3-0.5,0.6-0.7c0.2-0.2,0.5-0.4,0.8-0.5c0.3-0.1,0.6-0.2,1-0.2h2v-0.7
		c0-0.2,0-0.4-0.1-0.6c-0.1-0.2-0.2-0.3-0.4-0.5c-0.1-0.1-0.3-0.2-0.5-0.3c-0.2-0.1-0.4-0.1-0.6-0.1c-0.4,0-0.7,0-1,0.1
		c-0.3,0.1-0.6,0.2-1,0.4l-0.3-0.7c0.4-0.2,0.9-0.4,1.2-0.5c0.4-0.1,0.8-0.1,1.4-0.1c0.3,0,0.6,0.1,0.9,0.2c0.3,0.1,0.6,0.2,0.8,0.4
		c0.2,0.2,0.4,0.4,0.6,0.7c0.1,0.3,0.2,0.6,0.2,0.9v4.3C66.5,66.7,66,67,65.5,67.3z M65.7,63.6c-0.2,0-0.4,0-0.7,0s-0.6,0-0.9,0
		c-0.5,0-0.9,0.1-1.2,0.4c-0.3,0.3-0.5,0.6-0.5,1.1c0,0.2,0,0.4,0.1,0.6c0.1,0.2,0.2,0.4,0.4,0.5c0.2,0.2,0.3,0.3,0.5,0.4
		c0.2,0.1,0.4,0.1,0.7,0.1c0.4,0,0.7-0.1,1-0.2c0.3-0.1,0.5-0.3,0.6-0.4V63.6z"/>
	<path class="st10" d="M68.7,67.5c-0.4-0.2-0.8-0.4-1.1-0.6l0.4-0.7c0.3,0.2,0.6,0.4,0.9,0.5c0.3,0.1,0.7,0.2,1,0.2
		c0.2,0,0.4,0,0.6-0.1s0.4-0.1,0.6-0.2c0.2-0.1,0.3-0.2,0.4-0.4c0.1-0.2,0.2-0.4,0.1-0.6c0-0.2,0-0.3-0.1-0.5
		c-0.1-0.1-0.2-0.2-0.3-0.3c-0.1-0.1-0.3-0.2-0.4-0.2c-0.1-0.1-0.3-0.1-0.4-0.2c-0.1,0-0.2-0.1-0.3-0.1c-0.1,0-0.2-0.1-0.4-0.1
		c-0.2-0.1-0.5-0.2-0.7-0.3c-0.2-0.1-0.4-0.2-0.6-0.4c-0.2-0.1-0.4-0.3-0.5-0.6c-0.1-0.2-0.2-0.5-0.2-0.9c0-0.4,0.1-0.7,0.2-1
		c0.1-0.3,0.3-0.5,0.6-0.7c0.2-0.2,0.5-0.3,0.8-0.4c0.3-0.1,0.6-0.1,1-0.1c0.4,0,0.8,0.1,1.1,0.2c0.4,0.1,0.7,0.3,1.1,0.5L72,61.1
		c-0.5-0.3-1.1-0.5-1.6-0.5c-0.2,0-0.4,0-0.5,0.1c-0.2,0-0.3,0.1-0.5,0.2c-0.1,0.1-0.3,0.2-0.4,0.4c-0.1,0.1-0.1,0.3-0.1,0.5
		c0,0.2,0.1,0.4,0.2,0.5c0.1,0.1,0.3,0.2,0.5,0.3c0.2,0.1,0.4,0.2,0.7,0.3c0.2,0.1,0.5,0.2,0.7,0.3c0.2,0.1,0.5,0.2,0.7,0.3
		c0.2,0.1,0.4,0.2,0.6,0.4c0.2,0.2,0.4,0.4,0.5,0.6c0.1,0.2,0.2,0.5,0.2,0.9c0,0.4-0.1,0.7-0.3,1c-0.2,0.3-0.4,0.5-0.7,0.7
		c-0.3,0.2-0.6,0.3-1,0.4c-0.4,0.1-0.7,0.1-1.1,0.1C69.5,67.7,69.1,67.6,68.7,67.5z"/>
	<path class="st10" d="M79.7,67.5h-1.5l-2.6-4l-0.7,0.6v3.4h-1.2V56l1.2-0.4V63l3.5-3.2l0.6,0.6l-2.5,2.2L79.7,67.5z"/>
	<path class="st27" d="M39,24.3c8.4,0,16.8,0,25.2,0c0,8.4,0,16.8,0,25.2c-8.4,0-16.8,0-25.2,0C39,41.1,39,32.7,39,24.3z"/>
	<path d="M51.6,29.2c-2.6,0.5-5.1,1.1-7.7,1.6c-0.4,0.1-0.5,0.2-0.5,0.6c0,3.7,0,7.3,0,11c0,0.4,0.1,0.5,0.5,0.6
		c1.8,0.3,3.5,0.7,5.3,1.1c0.8,0.2,1.6,0.3,2.4,0.5C51.6,39.3,51.6,34.3,51.6,29.2z"/>
	<path class="st10" d="M43.9,30.7c-0.4,0.1-0.5,0.2-0.5,0.6c0,3.7,0,7.3,0,11c0,0.4,0.1,0.5,0.5,0.6c1.8,0.3,3.5,0.7,5.3,1.1
		c0.8,0.2,1.6,0.3,2.4,0.5c0-5.1,0-10.2,0-15.3C49,29.7,46.4,30.2,43.9,30.7z"/>
	<path class="st10" d="M59.9,32.1c0-0.4-0.1-0.6-0.6-0.6c-2.2,0-4.4,0-6.6,0V33c1.9,0,3.9,0,5.7,0c0.2,0,0.4,0,0.6,0
		c0,2.8,0,5.6,0,8.4c-0.2,0-0.4,0-0.6,0c-1.9,0-3.8,0-5.7,0V42c2.3,0,4.7,0,7.1,0c0-0.2,0-0.4,0-0.5C59.9,38.4,59.9,35.3,59.9,32.1z
		"/>
	<path class="st10" d="M54.9,35.6h-1.7c-0.2,0-0.4-0.2-0.4-0.4v-0.9c0-0.2,0.2-0.4,0.4-0.4h1.7c0.2,0,0.4,0.2,0.4,0.4v0.9
		C55.2,35.4,55.1,35.6,54.9,35.6z"/>
	<path class="st10" d="M58,35.6h-1.7c-0.2,0-0.4-0.2-0.4-0.4v-0.9c0-0.2,0.2-0.4,0.4-0.4H58c0.2,0,0.4,0.2,0.4,0.4v0.9
		C58.4,35.4,58.2,35.6,58,35.6z"/>
	<path class="st10" d="M54.9,38h-1.7c-0.2,0-0.4-0.2-0.4-0.4v-0.9c0-0.2,0.2-0.4,0.4-0.4h1.7c0.2,0,0.4,0.2,0.4,0.4v0.9
		C55.2,37.9,55.1,38,54.9,38z"/>
	<path class="st10" d="M58,38h-1.7c-0.2,0-0.4-0.2-0.4-0.4v-0.9c0-0.2,0.2-0.4,0.4-0.4H58c0.2,0,0.4,0.2,0.4,0.4v0.9
		C58.4,37.9,58.2,38,58,38z"/>
	<path class="st10" d="M58,40.5h-1.7c-0.2,0-0.4-0.2-0.4-0.4v-0.9c0-0.2,0.2-0.4,0.4-0.4H58c0.2,0,0.4,0.2,0.4,0.4v0.9
		C58.4,40.3,58.2,40.5,58,40.5z"/>
	<path class="st27" d="M46.7,38.3c0.2-0.3,0.3-0.6,0.5-0.9c0.2-0.3,0.4-0.6,0.5-0.9c0.1-0.2,0.3-0.4,0.4-0.6
		c0.1-0.2,0.2-0.3,0.4-0.5c0.2-0.2,0.4-0.4,0.6-0.5c0.2-0.2,0.4-0.3,0.6-0.4c0.3-0.2,0.6-0.3,0.9-0.5c0.2-0.1,0.5-0.2,0.7-0.2
		c0.2,0,0.4-0.1,0.6-0.1c0.1,0,0.2,0,0.2,0c0,0,0,0,0,0c0,0-0.1,0.1-0.1,0.1c-0.2,0.2-0.5,0.3-0.7,0.5c-0.2,0.1-0.3,0.2-0.5,0.4
		c-0.1,0.1-0.3,0.2-0.4,0.3c-0.1,0.1-0.3,0.2-0.4,0.3c-0.1,0.1-0.3,0.3-0.4,0.5c-0.2,0.2-0.3,0.4-0.4,0.5c-0.1,0.2-0.3,0.4-0.4,0.6
		c-0.2,0.3-0.3,0.5-0.5,0.8c-0.1,0.2-0.2,0.4-0.3,0.7c-0.1,0.3-0.2,0.6-0.3,0.8c0,0,0,0.1-0.1,0.1c0,0.1-0.1,0.1-0.1,0.1
		c-0.3,0.2-0.7,0.4-1,0.6c0,0-0.1,0-0.1,0c0,0-0.1,0-0.1,0c-0.1-0.2-0.3-0.3-0.4-0.5c-0.1-0.1-0.2-0.2-0.3-0.4
		c-0.1-0.1-0.2-0.2-0.3-0.3c-0.1-0.1-0.1-0.1-0.2-0.2c-0.1-0.1-0.2-0.2-0.2-0.2c-0.1-0.1-0.3-0.2-0.4-0.3c0,0,0,0-0.1-0.1
		c0.3-0.4,0.6-0.7,0.9-1.1C45.8,37.4,46.2,37.8,46.7,38.3z"/>
</g>
</svg>
