<?xml version="1.0" encoding="utf-8"?>
<!-- Generator: Adobe Illustrator 25.2.0, SVG Export Plug-In . SVG Version: 6.00 Build 0)  -->
<svg version="1.1" id="Capa_1" xmlns="http://www.w3.org/2000/svg" xmlns:xlink="http://www.w3.org/1999/xlink" x="0px" y="0px"
	 viewBox="0 0 105.2 95.6" style="enable-background:new 0 0 105.2 95.6;" xml:space="preserve">
<style type="text/css">
	.st0{fill:url(#SVGID_1_);}
	.st1{fill:#6F388D;}
	.st2{fill:#EA4E4C;}
	.st3{fill:url(#SVGID_2_);}
	.st4{fill:url(#SVGID_3_);}
	.st5{fill:url(#SVGID_4_);}
	.st6{fill:#F29423;}
	.st7{fill:#FFCC00;}
	.st8{fill:#F0811E;}
	.st9{fill:#544E9C;}
	.st10{fill:#FFFFFF;}
	.st11{fill:url(#SVGID_5_);}
	.st12{fill:url(#SVGID_6_);}
	.st13{fill:url(#SVGID_7_);}
	.st14{fill:url(#SVGID_8_);}
	.st15{fill:url(#SVGID_9_);}
	.st16{fill:url(#SVGID_10_);}
	.st17{fill:#1F1B1E;}
	.st18{fill:#FFFFFF;stroke:#E3E3E3;stroke-width:0.7087;stroke-miterlimit:10;}
	.st19{opacity:0.1;fill:#6F388D;}
	.st20{opacity:0.1;fill:#F29423;}
	.st21{opacity:0.1;fill:#EA4E4C;}
	.st22{fill:url(#SVGID_11_);}
	.st23{opacity:0.52;fill:#FFFFFF;}
	.st24{fill:url(#SVGID_12_);}
	.st25{fill:#F1860B;}
</style>
<linearGradient id="SVGID_1_" gradientUnits="userSpaceOnUse" x1="52.5907" y1="1.0285" x2="52.5907" y2="94.4952">
	<stop  offset="0" style="stop-color:#544E9C"/>
	<stop  offset="1" style="stop-color:#6F388D"/>
</linearGradient>
<rect class="st0" width="105.2" height="95.6"/>
<g>
	<path class="st10" d="M33.6,25.9c0.8,0.7,1.1,1.7,1.1,2.9V29c0,0.1,0,0.1,0,0.2c0,0.1,0,0.2,0,0.2h-6.1c0.1,0.5,0.3,0.9,0.7,1.2
		c0.4,0.3,0.9,0.5,1.4,0.5c0.8,0,1.4-0.2,1.9-0.7l2,0.1c-0.1,0.1-0.1,0.2-0.2,0.4c-0.4,0.6-0.9,1.1-1.5,1.5
		c-0.7,0.4-1.4,0.5-2.1,0.5c-1.1,0-2.1-0.4-2.8-1.1s-1.1-1.7-1.1-2.9c0-1.2,0.4-2.2,1.2-2.9c0.8-0.8,1.7-1.1,2.8-1.1
		C31.9,24.7,32.8,25.1,33.6,25.9z M29.2,26.9c-0.3,0.3-0.5,0.6-0.6,1.1h4.3c-0.1-0.4-0.3-0.8-0.6-1.1c-0.4-0.4-0.9-0.6-1.5-0.6
		C30.2,26.4,29.7,26.6,29.2,26.9z"/>
	<path class="st10" d="M36.5,25l2.1,5.1l2.1-5.1h1.9l-3.2,7.6h-1.6L34.6,25H36.5z"/>
	<path class="st10" d="M49.4,25.9c0.8,0.7,1.1,1.7,1.1,2.9V29c0,0.1,0,0.1,0,0.2c0,0.1,0,0.2,0,0.2h-6.1c0.1,0.5,0.3,0.9,0.7,1.2
		c0.4,0.3,0.9,0.5,1.4,0.5c0.8,0,1.4-0.2,1.9-0.7l2,0.1c-0.1,0.1-0.1,0.2-0.2,0.4c-0.4,0.6-0.9,1.1-1.5,1.5
		c-0.7,0.4-1.4,0.5-2.1,0.5c-1.1,0-2.1-0.4-2.8-1.1C43,31,42.7,30,42.7,28.8c0-1.2,0.4-2.2,1.2-2.9c0.8-0.8,1.7-1.1,2.8-1.1
		C47.8,24.7,48.7,25.1,49.4,25.9z M45.1,26.9c-0.3,0.3-0.5,0.6-0.6,1.1h4.3c-0.1-0.4-0.3-0.8-0.6-1.1c-0.4-0.4-0.9-0.6-1.5-0.6
		C46.1,26.4,45.5,26.6,45.1,26.9z"/>
	<path class="st10" d="M51.8,32.6V25h1.5l0.1,0.5c0.5-0.5,1.2-0.7,2.1-0.8c1-0.1,1.9,0.2,2.5,0.8s1,1.4,1,2.5v4.6v0v0v0v0h-1.7v-4.4
		c0-0.6-0.2-1-0.5-1.3c-0.4-0.4-0.9-0.5-1.5-0.5c-0.4,0-0.7,0.1-1.1,0.3c-0.3,0.1-0.6,0.3-0.7,0.5v5.5H51.8z"/>
	<path class="st10" d="M62.9,22.6V25H65v1.5h-2.1v3.2c0,0,0,0.1,0,0.1c0,0.4,0,0.7,0.1,0.9c0,0.2,0.1,0.4,0.3,0.5
		c0.2,0.1,0.5,0.1,0.7,0c0.3-0.1,0.5-0.2,0.8-0.4c0.1,0.2,0.2,0.4,0.4,0.7c0.2,0.3,0.3,0.5,0.4,0.7l-0.4,0.3
		c-0.4,0.2-0.8,0.4-1.2,0.5c-0.4,0.1-0.8,0-1.2-0.1c-0.7-0.2-1.1-0.6-1.4-1.2c-0.1-0.3-0.2-0.8-0.2-1.4v-3.7h-1V25h1v-2.4H62.9z"/>
	<path class="st23" d="M66.5,30.4c0-0.4,0-0.8,0.2-1.2c0.2-0.3,0.4-0.6,0.7-0.8c0.3-0.2,0.7-0.4,1-0.5c0.4-0.1,0.8-0.1,1.2-0.1
		c0.6,0,1.2,0.1,1.6,0.4c0.5,0.2,0.8,0.5,1.1,0.8v-0.3c0-1-0.2-1.8-0.6-2.3c-0.4-0.5-1-0.7-1.9-0.7c-0.5,0-1,0.1-1.5,0.3
		c-0.5,0.2-0.8,0.5-1.1,0.8l-0.4-0.6c0.4-0.4,0.8-0.7,1.4-0.9c0.5-0.2,1.1-0.3,1.7-0.3c1.1,0,1.9,0.3,2.4,0.9
		c0.6,0.6,0.8,1.5,0.8,2.7v3.9h-0.6l-0.1-0.7c-0.3,0.2-0.7,0.5-1.2,0.7c-0.5,0.2-1,0.3-1.5,0.3c-1,0-1.7-0.2-2.3-0.6
		C66.9,31.7,66.6,31.2,66.5,30.4z M72.5,31.1v-1.2c-0.2-0.4-0.5-0.7-1-1c-0.5-0.3-1.1-0.5-1.7-0.5c-0.3,0-0.6,0-0.9,0.1
		c-0.3,0.1-0.6,0.2-0.8,0.3c-0.2,0.1-0.4,0.4-0.6,0.6c-0.1,0.3-0.2,0.6-0.2,0.9c0,0.5,0.3,1,0.7,1.2c0.5,0.3,1,0.4,1.7,0.4
		c0.5,0,1-0.1,1.5-0.2C71.7,31.6,72.1,31.4,72.5,31.1z"/>
	<path class="st23" d="M77.8,25c1.1,0,2,0.4,2.7,1.1c0.7,0.7,1.1,1.6,1.1,2.8c0,1.2-0.4,2.1-1.1,2.8c-0.7,0.7-1.6,1.1-2.7,1.1
		c-1,0-1.9-0.3-2.6-1v4.4h-0.8V25.2h0.6l0.1,0.7C75.9,25.3,76.8,25,77.8,25z M77.7,25.7c-1.1,0-2,0.4-2.5,1.2v3.9
		c0.6,0.8,1.4,1.2,2.5,1.2c0.9,0,1.7-0.3,2.2-0.8c0.6-0.5,0.9-1.3,0.9-2.3c0-1-0.3-1.7-0.9-2.3C79.4,26,78.6,25.7,77.7,25.7z"/>
	<path class="st23" d="M86.2,25c1.1,0,2,0.4,2.7,1.1c0.7,0.7,1.1,1.6,1.1,2.8c0,1.2-0.4,2.1-1.1,2.8c-0.7,0.7-1.6,1.1-2.7,1.1
		c-1,0-1.9-0.3-2.6-1v4.4h-0.8V25.2h0.6l0.1,0.7C84.3,25.3,85.1,25,86.2,25z M86.1,25.7c-1.1,0-2,0.4-2.5,1.2v3.9
		c0.6,0.8,1.4,1.2,2.5,1.2c0.9,0,1.7-0.3,2.2-0.8c0.6-0.5,0.9-1.3,0.9-2.3c0-1-0.3-1.7-0.9-2.3C87.7,26,87,25.7,86.1,25.7z"/>
	<radialGradient id="SVGID_2_" cx="20.6859" cy="24.5504" r="5.2984" gradientUnits="userSpaceOnUse">
		<stop  offset="0" style="stop-color:#FFCC00"/>
		<stop  offset="1" style="stop-color:#F29423"/>
	</radialGradient>
	<polygon class="st3" points="20.7,19.4 22.4,22.8 26.1,23.3 23.4,26 24,29.7 20.7,28 17.3,29.7 18,26 15.3,23.3 19,22.8 	"/>
</g>
<g>
	<g>
		<path class="st25" d="M32.2,72.9c-0.2-0.6-0.6-1-1.1-1.3c-0.6-0.4-0.8-0.9-0.8-1.6c0-0.6,0-1.2,0.2-1.8c0.3-0.9,0.8-1.7,1.5-2.3
			c0.9-0.8,1.9-1.3,3-1.5c0.7-0.1,1.4-0.1,2.1,0.1c0,0,0.1,0,0.1,0c-0.5,0.3-0.9,0.7-1,1.3c1.2-0.8,2.4-0.8,3.7-0.4
			c0.6,0.2,0.9,0.5,1.1,0.8c-0.2,0-0.4,0.1-0.6,0.1c-0.7,0.2-1.2,0.7-1.6,1.3c-0.3,0.6-0.6,1.2-0.8,1.8c0,0,0,0,0,0.1
			c-0.2-0.6-0.4-1.1-0.7-1.6c-0.1,0.2-0.2,0.4-0.3,0.6c-0.4-0.1-0.7-0.2-1.1-0.3c-1-0.2-2-0.1-2.8,0.5c-0.4,0.3-0.8,0.7-1,1.2
			c-0.3,0.7-0.2,1.4-0.1,2.1C32.2,72.4,32.2,72.7,32.2,72.9C32.2,72.9,32.2,72.9,32.2,72.9z"/>
		<path class="st10" d="M39.6,76.5c-1.5-0.9-3.3-1.7-4.8-2.6c-0.6,1-1.5,1.3-2.6,1.3c0-0.1,0-0.1,0.1-0.2c0.3-1,0.3-2,0.2-3
			c-0.1-0.7,0-1.3,0.4-1.8c0.4-0.5,0.9-0.8,1.5-0.9c0.8-0.1,1.5,0,2.2,0.4c0,0,0,0,0.1,0c-0.1,0.2-0.2,0.3-0.3,0.5
			c0.6-0.2,1.1-0.3,1.6-0.5c-0.1,0.2-0.1,0.4-0.2,0.6c0,0.1,0,0.1,0,0.2c0.5,0.8,0.7,1.7,0.8,2.6c0,0.1,0,0.1,0,0.2
			c-0.1-0.2-0.2-0.4-0.3-0.6c-0.1-0.2-0.2-0.3-0.4-0.3c-0.5-0.1-1.1-0.3-1.6-0.4c0,0-0.1,0-0.2,0c0,0.2,0,0.4,0.1,0.7
			c0,0,0.1,0.1,0.1,0.1c0.5,0.2,1.1,0.3,1.6,0.5c0.1,0,0.2,0.1,0.2,0.2C38.5,74.3,39.5,76.4,39.6,76.5z"/>
	</g>
	<g>
		<path class="st10" d="M57.2,69.8c0,0.2,0.1,0.3,0.3,0.3v0.8c-0.9,0-1.4-0.4-1.4-1.1v-1.7c0-0.7,0.5-1.1,1.4-1.1h1.1v0.8h-1.1
			c-0.2,0-0.3,0.1-0.3,0.3V69.8z M58.9,70.9h-1.1V70h1.1c0.2,0,0.3-0.1,0.3-0.3v-0.6h1.1v0.6C60.3,70.5,59.8,70.9,58.9,70.9z
			 M59.2,68.1c0-0.2-0.1-0.3-0.3-0.3V67c0.9,0,1.4,0.4,1.4,1.1v0.6h-1.1V68.1z"/>
		<path class="st10" d="M68.5,67.8h-2.8L65.2,67h3.3c0.9,0,1.4,0.4,1.4,1.1v1.7c0,0.7-0.5,1.1-1.4,1.1h-1.4V70h1.4
			c0.2,0,0.3-0.1,0.3-0.3v-1.7C68.8,67.9,68.7,67.8,68.5,67.8z M66.9,70.9h-1.1v-2.8h1.1V70.9z"/>
		<path class="st10" d="M74.5,67.8h-3.9L70.1,67h4.4V67.8z M70.6,68.1h1.1V70h2.8v0.8h-3.9V68.1z M74.5,69.5h-1.7L72,68.7h2.5V69.5z
			"/>
		<g>
			<polygon class="st10" points="39.6,72 41.9,76.3 42.5,75.2 40.8,72 			"/>
			<polygon class="st10" points="44.6,72 43.5,74 42.5,72 41.3,72 43.5,76.3 45.8,72 			"/>
			<polygon class="st25" points="44.2,72 42.9,72 43.5,73.2 			"/>
		</g>
		<polygon class="st25" points="49.6,67 51.6,70.8 52.6,70.8 50.6,67 		"/>
		<polygon class="st10" points="51.3,67 53.3,70.8 54.4,70.8 52.4,67 		"/>
		<path class="st10" d="M46.6,74.1l-0.9,1.7h-1.2l1.5-2.9L46.6,74.1z M46.2,72.6l0.6-1.1l2.2,4.3h-1.2L46.2,72.6z"/>
		<path class="st10" d="M52.2,72.8h-2.8L48.8,72h3.3c0.9,0,1.4,0.4,1.4,1.1v0.3c0,0.6-0.3,0.9-0.9,1.1l0.9,1.4h-1.4l-1.4-2.2h1.4
			c0.2,0,0.3-0.1,0.3-0.3v-0.3C52.4,72.9,52.3,72.8,52.2,72.8z M50.5,75.8h-1.1v-2.8h1.1V75.8z"/>
		<path class="st10" d="M56.9,72.8h-2.8L53.5,72h3.3c0.9,0,1.4,0.4,1.4,1.1v0.3c0,0.6-0.3,0.9-0.9,1.1l0.9,1.4h-1.4l-1.4-2.2h1.4
			c0.2,0,0.3-0.1,0.3-0.3v-0.3C57.1,72.9,57.1,72.8,56.9,72.8z M55.2,75.8h-1.1v-2.8h1.1V75.8z"/>
		<path class="st10" d="M58.8,72h1.1v3.9h-1.1V72z"/>
		<g>
			<path class="st25" d="M62.1,75v-0.3c0-0.3-0.1-0.5-0.2-0.7c0.1-0.2,0.2-0.4,0.2-0.7v-0.3H61v0.3c0,0.2-0.1,0.3-0.3,0.3h-0.3v0.8
				h0.3c0.2,0,0.3,0.1,0.3,0.3V75c0,0.7,0.5,1.1,1.4,1.1h0.3v-0.8h-0.3C62.2,75.3,62.1,75.2,62.1,75z"/>
			<path class="st25" d="M62.4,71.7c-0.9,0-1.4,0.4-1.4,1.1h1.1c0-0.2,0.1-0.3,0.3-0.3h0.3v-0.8H62.4z"/>
		</g>
		<g>
			<path class="st25" d="M64.9,73.6c-0.2,0-0.3-0.1-0.3-0.3v-0.3h-1.1v0.3c0,0.3,0.1,0.5,0.2,0.7c-0.1,0.2-0.2,0.4-0.2,0.7V75
				c0,0.2-0.1,0.3-0.3,0.3H63v0.8h0.3c0.9,0,1.4-0.4,1.4-1.1v-0.3c0-0.2,0.1-0.3,0.3-0.3h0.3v-0.8H64.9z"/>
			<path class="st25" d="M63.5,72.8h1.1c0-0.7-0.5-1.1-1.4-1.1H63v0.8h0.3C63.4,72.5,63.5,72.6,63.5,72.8z"/>
		</g>
		<path class="st10" d="M68.5,72.8h-2.8L65.2,72h3.3c0.9,0,1.4,0.4,1.4,1.1v0.3c0,0.6-0.3,0.9-0.9,1.1l0.9,1.4h-1.4l-1.4-2.2h1.4
			c0.2,0,0.3-0.1,0.3-0.3v-0.3C68.8,72.9,68.7,72.8,68.5,72.8z M66.8,75.8h-1.1v-2.8h1.1V75.8z"/>
		<path class="st10" d="M71.8,72h2.8v0.8h-2.8c-0.2,0-0.3,0.1-0.3,0.3v0.3c0,0.2,0.1,0.3,0.3,0.3h0.6v0.8h-0.6
			c-0.9,0-1.4-0.4-1.4-1.1v-0.3C70.4,72.3,70.9,72,71.8,72z M73.2,75.8h-2.8V75h2.8c0.2,0,0.3-0.1,0.3-0.3c0-0.2-0.1-0.3-0.3-0.3
			h-0.6v-0.8h0.6c0.9,0,1.4,0.4,1.4,1.1C74.6,75.5,74.1,75.8,73.2,75.8z"/>
		<g>
			<path class="st25" d="M61.9,68.1h-1v2.4c0,0.2,0.2,0.3,0.3,0.3h1.4V70h-0.7V68.1z"/>
			<path class="st25" d="M61.3,67c-0.2,0-0.3,0.2-0.3,0.3v0.6h1.7V67H61.3z"/>
		</g>
		<g>
			<path class="st25" d="M64.3,67H63v0.9h1.7v-0.6C64.7,67.1,64.5,67,64.3,67z"/>
			<path class="st25" d="M63.7,70H63v0.8h1.4c0.2,0,0.3-0.2,0.3-0.3v-2.4h-1V70z"/>
		</g>
	</g>
</g>
</svg>
