<?xml version="1.0" encoding="utf-8"?>
<!-- Generator: Adobe Illustrator 25.1.0, SVG Export Plug-In . SVG Version: 6.00 Build 0)  -->
<svg version="1.1" xmlns="http://www.w3.org/2000/svg" xmlns:xlink="http://www.w3.org/1999/xlink" x="0px" y="0px"
	 viewBox="0 0 291.2 102.6" style="enable-background:new 0 0 291.2 102.6;" xml:space="preserve">
<style type="text/css">
	.st0{display:none;}
	.st1{fill:#243264;}
	.st2{fill:#ECE43C;}
	.st3{fill-rule:evenodd;clip-rule:evenodd;fill:#1D3E8A;}
	.st4{fill:url(#SVGID_1_);}
	.st5{fill-rule:evenodd;clip-rule:evenodd;fill:#2781C1;}
	.st6{fill-rule:evenodd;clip-rule:evenodd;fill:#8ECFF3;}
	.st7{fill:#8ECFF3;}
	.st8{fill:url(#SVGID_2_);}
	.st9{fill:#585857;stroke:#B3B2B2;stroke-width:0.5824;stroke-miterlimit:10;}
	.st10{fill:#2781C1;}
	.st11{fill-rule:evenodd;clip-rule:evenodd;fill:#FDEB1B;}
	.st12{fill-rule:evenodd;clip-rule:evenodd;fill:#3EAB37;}
	.st13{fill-rule:evenodd;clip-rule:evenodd;fill:#056734;}
	.st14{fill:#142740;}
	.st15{fill:#50B9A4;}
	.st16{fill-rule:evenodd;clip-rule:evenodd;fill:#FFFFFF;}
	.st17{fill:#1E1E1C;}
	.st18{fill-rule:evenodd;clip-rule:evenodd;fill:#1E1E1C;}
	.st19{fill-rule:evenodd;clip-rule:evenodd;fill:#E30D18;}
	.st20{fill-rule:evenodd;clip-rule:evenodd;fill:#302D7F;}
	.st21{fill-rule:evenodd;clip-rule:evenodd;fill:#209DD9;}
	.st22{fill:#1D3E8A;}
	.st23{fill:#F4B219;}
	.st24{fill:#E7323B;}
	.st25{fill-rule:evenodd;clip-rule:evenodd;fill:#6F1510;}
	.st26{fill-rule:evenodd;clip-rule:evenodd;fill:#BE4318;}
	.st27{fill:#6F1510;}
	.st28{fill:#55257F;}
	.st29{fill-rule:evenodd;clip-rule:evenodd;fill:#604F9C;}
	.st30{fill-rule:evenodd;clip-rule:evenodd;fill:#9990C5;}
	.st31{fill:#9990C5;}
	.st32{fill-rule:evenodd;clip-rule:evenodd;fill:#7FBFEA;}
	.st33{opacity:0.5;}
	.st34{fill:#7FBFEA;}
	.st35{fill:#7D4112;}
	.st36{fill-rule:evenodd;clip-rule:evenodd;fill:#CD9920;}
	.st37{fill-rule:evenodd;clip-rule:evenodd;fill:#5E2C0F;}
	.st38{fill:#CD9920;}
	.st39{fill:#CD6E1F;}
	.st40{fill:#1A1F3B;}
	.st41{fill:#972F34;}
	.st42{fill:#57571D;}
	.st43{fill:#D6D324;}
	.st44{fill:#F0AC93;}
	.st45{fill:#333D90;}
	.st46{fill:#976745;}
	.st47{fill:#BE4318;}
	.st48{fill:#5ABFC2;}
	.st49{fill:#088A83;}
	.st50{fill:#EE7712;}
	.st51{fill:#0A4974;}
	.st52{fill:#741E0E;}
	.st53{fill:#CE3B20;}
	.st54{fill:#F18D7A;}
	.st55{fill:#F5D07A;}
	.st56{fill:#755613;}
	.st57{fill:#624192;}
	.st58{fill:#DB2215;}
	.st59{fill:#DBA60D;}
	.st60{fill:#69B42E;}
	.st61{fill:#6BBD95;}
	.st62{fill:#385B4F;}
	.st63{fill:#C89C5A;}
	.st64{fill:#5B5137;}
	.st65{clip-path:url(#SVGID_4_);}
	.st66{clip-path:url(#SVGID_6_);}
	.st67{clip-path:url(#SVGID_10_);}
	.st68{clip-path:url(#SVGID_12_);}
	.st69{clip-path:url(#SVGID_16_);}
	.st70{clip-path:url(#SVGID_18_);}
	.st71{clip-path:url(#SVGID_22_);}
	.st72{clip-path:url(#SVGID_24_);}
	.st73{clip-path:url(#SVGID_28_);}
	.st74{clip-path:url(#SVGID_30_);}
</style>
<g id="guias" class="st0">
</g>
<g id="Capa_1">
	<g>
		<path class="st3" d="M3.9,99.6c0,0,7.7-0.3,17.2-15c7.4-12.7,31.2-54,31.2-54c1.9-3.3,6-5.9,9.3-5.9h13.7L40.6,84.7l-3,4.8
			C28.3,104.4,3.9,99.6,3.9,99.6z"/>
		<path class="st3" d="M287.3,3c0,0-7.7,0.3-17.2,15C262.8,30.7,248,56.3,248,56.3c-1.9,3.3-6,5.9-9.3,5.9H225L250.5,18l3-4.8
			C262.8-1.8,287.3,3,287.3,3z"/>
		<path class="st3" d="M115.7,84.7H102l31.2-54c1.9-3.3,6-5.9,9.3-5.9h13.7l-31.2,54C123.1,82,119,84.7,115.7,84.7z"/>
		<g>
			<path class="st5" d="M108.8,72.7L84.5,30.6c-1.9-3.3-6-5.9-9.3-5.9l-6.9,11.9l24.3,42.1c1.9,3.2,6,5.9,9.3,5.9L108.8,72.7z"/>
		</g>
		<path class="st3" d="M183.7,62.2H170l18.2-31.6c1.9-3.3,6-5.9,9.3-5.9h13.7L193,56.3C191.1,59.5,187,62.2,183.7,62.2z"/>
		<g>
			<path class="st5" d="M176.8,50.3l-11.4-19.7c-1.9-3.3-6-5.9-9.3-5.9l-6.9,11.9l11.4,19.7c1.9,3.3,6,5.9,9.3,5.9L176.8,50.3z"/>
		</g>
		<g>
			<path class="st5" d="M231.9,50.3l-11.4-19.7c-1.9-3.3-6-5.9-9.3-5.9l-6.9,11.9l11.4,19.7c1.9,3.3,6,5.9,9.3,5.9L231.9,50.3z"/>
		</g>
		<g>
			<path class="st22" d="M150.8,83.9c-1,0.3-1.9,0.5-3.3,0.5c-3.4,0-5.7-2.3-5.7-5.8c0-3.5,2.3-5.8,5.8-5.8c3.6,0,6,2.2,6,5.6
				c0,1.3-0.7,2-1.7,2c-1,0-1.5-0.4-2.2-2c-0.5-1.2-1.1-1.6-2.1-1.6c-1.2,0-1.9,0.7-1.9,1.9c0,1.2,0.8,2,2.1,2
				c0.6,0,0.9-0.1,1.5-0.2l0.3-0.1c0.1,0,0.1,0,0.2,0.1c0.1,0.1,0.2,0.2,0.3,0.3c0.1,0.1,0.1,0.1,0,0.2l-0.5,0.2
				c-0.5,0.2-0.9,0.3-1.7,0.3c-1.8,0-2.8-1-2.8-2.6c0-1.6,1-2.5,2.6-2.5c1.2,0,2,0.5,2.6,1.9c0.6,1.4,0.9,1.7,1.6,1.7
				c0.6,0,1-0.4,1-1.3c0-2.9-2.1-4.9-5.3-4.9c-3.1,0-5.2,2.1-5.2,5.1c0,3.1,2,5.1,5,5.1c1.2,0,2.2-0.2,3.2-0.5l0.9-0.3
				c0.1,0,0.1,0,0.2,0.1l0.1,0.4c0,0.1,0,0.1-0.1,0.2L150.8,83.9z"/>
			<path class="st22" d="M157.4,83.9c0,0.9-0.3,1.5-0.9,1.9l-0.5,0.4c-0.1,0-0.1,0-0.2,0l-0.2-0.3c0-0.1,0-0.1,0-0.2l0.5-0.4
				c0.4-0.3,0.6-0.8,0.6-1.4v-8.5h-0.7c-0.1,0-0.1,0-0.1-0.1v-0.4c0-0.1,0-0.1,0.1-0.1h1.3c0.1,0,0.1,0,0.1,0.1V83.9z M157.4,71.5
				c0,0.4-0.2,0.5-0.5,0.5c-0.3,0-0.5-0.2-0.5-0.5c0-0.3,0.2-0.5,0.5-0.5C157.2,71,157.4,71.2,157.4,71.5z"/>
			<path class="st22" d="M161,74.9c0.4-0.1,1.1-0.2,1.8-0.2c1.9,0,3.1,1.2,3.1,3.2v4.7c0,0.1,0,0.1-0.1,0.1h-0.4
				c-0.1,0-0.1,0-0.1-0.1v-0.9c0-0.2-0.1-0.2-0.3,0c-0.6,0.8-1.5,1.2-2.8,1.2c-1.6,0-2.5-0.9-2.5-2.3c0-1.4,1-2.4,2.8-2.4h2.7v-0.3
				c0-1.6-0.9-2.5-2.4-2.5c-0.6,0-1.2,0.1-1.6,0.2l-0.6,0.2c-0.1,0-0.1,0-0.2-0.1l-0.1-0.4c0-0.1,0-0.1,0.1-0.2L161,74.9z
				 M162.4,78.8c-1.5,0-2.2,0.7-2.2,1.7c0,1.1,0.7,1.7,1.9,1.7c1.9,0,3-1.2,3-3.1v-0.3H162.4z"/>
			<path class="st22" d="M172.3,80.2c-0.3,0.7-0.6,1.7-0.8,2.4c0,0.1-0.1,0.1-0.1,0.1h-0.5c-0.1,0-0.1,0-0.1-0.1
				c-0.2-0.7-0.5-1.7-0.8-2.4l-2.4-5.2c0-0.1,0-0.1,0.1-0.1h0.5c0.1,0,0.1,0,0.2,0.1l2.2,4.8c0.3,0.6,0.5,1.2,0.6,1.6
				c0,0.1,0.1,0.1,0.2,0c0.1-0.4,0.3-1,0.6-1.6l2.2-4.8c0-0.1,0.1-0.1,0.2-0.1h0.4c0.1,0,0.1,0.1,0.1,0.1L172.3,80.2z"/>
			<path class="st22" d="M177.3,74.9c0.4-0.1,1.1-0.2,1.8-0.2c1.9,0,3.1,1.2,3.1,3.2v4.7c0,0.1,0,0.1-0.1,0.1h-0.4
				c-0.1,0-0.1,0-0.1-0.1v-0.9c0-0.2-0.1-0.2-0.3,0c-0.6,0.8-1.5,1.2-2.8,1.2c-1.6,0-2.5-0.9-2.5-2.3c0-1.4,1-2.4,2.8-2.4h2.7v-0.3
				c0-1.6-0.9-2.5-2.4-2.5c-0.6,0-1.2,0.1-1.6,0.2l-0.6,0.2c-0.1,0-0.1,0-0.2-0.1l-0.1-0.4c0-0.1,0-0.1,0.1-0.2L177.3,74.9z
				 M178.7,78.8c-1.5,0-2.2,0.7-2.2,1.7c0,1.1,0.7,1.7,1.9,1.7c1.9,0,3-1.2,3-3.1v-0.3H178.7z"/>
			<path class="st22" d="M185.4,76.1c0,0.1,0.1,0.1,0.2,0c0.6-0.9,1.5-1.5,2.8-1.5c1.8,0,2.8,1.3,2.8,3.2v4.7c0,0.1,0,0.1-0.1,0.1
				h-0.4c-0.1,0-0.1,0-0.1-0.1v-4.6c0-1.6-0.8-2.6-2.2-2.6c-1.9,0-2.9,1.4-2.9,3.7v3.5c0,0.1,0,0.1-0.1,0.1h-0.4
				c-0.1,0-0.1,0-0.1-0.1v-7.6c0-0.1,0-0.1,0.1-0.1h0.4c0.1,0,0.1,0,0.1,0.1V76.1z"/>
			<path class="st22" d="M200.3,82.6c0,0.1,0,0.1-0.1,0.1h-0.4c-0.1,0-0.1,0-0.1-0.1v-1.2c0-0.1-0.1-0.2-0.2,0
				c-0.6,0.9-1.5,1.5-2.6,1.5c-2.1,0-3.3-1.6-3.3-4.1c0-2.6,1.3-4.1,3.5-4.1c0.8,0,1.4,0.1,2.1,0.4l0.5,0.2v-4.1
				c0-0.1,0-0.1,0.1-0.1h0.4c0.1,0,0.1,0,0.1,0.1V82.6z M198.8,75.7c-0.6-0.3-1.1-0.4-1.9-0.4c-1.8,0-2.8,1.3-2.8,3.4
				c0,2.1,1,3.4,2.6,3.4c1.9,0,2.8-1.6,2.8-3.7v-2.4L198.8,75.7z"/>
			<path class="st22" d="M206.7,75.2c0,0.1,0,0.1-0.1,0.1c-1.8,0.1-2.9,1.7-2.9,4.3v2.9c0,0.1,0,0.1-0.1,0.1h-0.4
				c-0.1,0-0.1,0-0.1-0.1v-7.6c0-0.1,0-0.1,0.1-0.1h0.4c0.1,0,0.1,0,0.1,0.1v1.4c0,0.1,0.1,0.1,0.2,0c0.6-1.1,1.5-1.7,2.7-1.7
				c0.1,0,0.1,0,0.1,0.1V75.2z"/>
			<path class="st22" d="M213.6,82.6c-0.6,0.2-1.2,0.3-1.8,0.3c-2.2,0-3.5-1.6-3.5-4.1c0-2.5,1.3-4.1,3.5-4.1c1.8,0,2.9,0.9,2.9,2.4
				c0,1.1-0.7,1.8-2.1,2l-3.5,0.6c0.2,1.6,1.2,2.6,2.7,2.6c0.6,0,1.1,0,1.6-0.2l0.4-0.1c0.1,0,0.1,0,0.2,0.1l0.1,0.4
				c0,0.1,0,0.1-0.1,0.2L213.6,82.6z M212.4,78.4c1-0.2,1.5-0.6,1.5-1.4c0-1.1-0.8-1.7-2.2-1.7c-1.8,0-2.8,1.2-2.8,3.6L212.4,78.4z"
				/>
			<path class="st22" d="M218.3,78.6c-1.1-0.3-1.7-0.9-1.7-2c0-1.3,1-2,2.7-2c0.7,0,1.4,0.1,1.9,0.2l0.6,0.2c0.1,0,0.1,0.1,0.1,0.2
				l-0.1,0.4c0,0.1-0.1,0.1-0.2,0.1l-0.6-0.2c-0.4-0.1-1.1-0.2-1.7-0.2c-1.3,0-2.1,0.5-2.1,1.4c0,0.7,0.4,1.1,1.2,1.4l2,0.6
				c1.2,0.3,1.7,1,1.7,2c0,1.4-1.1,2.2-2.9,2.2c-1,0-1.9-0.2-2.5-0.4l-0.3-0.1c-0.1,0-0.1-0.1-0.1-0.2l0.2-0.4
				c0-0.1,0.1-0.1,0.2-0.1l0.3,0.1c0.5,0.2,1.2,0.3,2.3,0.3c1.4,0,2.3-0.6,2.3-1.5c0-0.7-0.4-1.1-1.3-1.4L218.3,78.6z"/>
			<path class="st22" d="M225.2,76.1c0,0.1,0.1,0.1,0.2,0c0.6-0.9,1.4-1.5,2.7-1.5c1.3,0,2,0.8,2.4,1.7c0,0.1,0.2,0.1,0.2,0
				c0.7-1.2,1.6-1.7,2.9-1.7c1.6,0,2.6,1.3,2.6,3.2v4.7c0,0.1,0,0.1-0.1,0.1h-0.4c-0.1,0-0.1,0-0.1-0.1v-4.6c0-1.6-0.7-2.6-2-2.6
				c-2,0-2.8,1.6-2.8,3.7v3.5c0,0.1,0,0.1-0.1,0.1h-0.4c-0.1,0-0.1,0-0.1-0.1v-4.7c0-1.6-0.7-2.6-2-2.6c-2,0-2.8,1.6-2.8,3.7v3.5
				c0,0.1,0,0.1-0.1,0.1h-0.4c-0.1,0-0.1,0-0.1-0.1v-7.6c0-0.1,0-0.1,0.1-0.1h0.4c0.1,0,0.1,0,0.1,0.1V76.1z"/>
			<path class="st22" d="M245.4,78.7c0,2.5-1.3,4.1-3.5,4.1s-3.5-1.6-3.5-4.1c0-2.5,1.3-4.1,3.5-4.1S245.4,76.2,245.4,78.7z
				 M239.1,78.7c0,2.1,1.1,3.4,2.8,3.4c1.8,0,2.8-1.3,2.8-3.4c0-2.2-1-3.4-2.8-3.4C240.1,75.3,239.1,76.6,239.1,78.7z"/>
			<path class="st22" d="M251.3,75.2c0,0.1,0,0.1-0.1,0.1c-1.8,0.1-2.9,1.7-2.9,4.3v2.9c0,0.1,0,0.1-0.1,0.1h-0.4
				c-0.1,0-0.1,0-0.1-0.1v-7.6c0-0.1,0-0.1,0.1-0.1h0.4c0.1,0,0.1,0,0.1,0.1v1.4c0,0.1,0.1,0.1,0.2,0c0.6-1.1,1.5-1.7,2.7-1.7
				c0.1,0,0.1,0,0.1,0.1V75.2z"/>
			<path class="st22" d="M258.2,82.6c-0.6,0.2-1.2,0.3-1.8,0.3c-2.2,0-3.5-1.6-3.5-4.1c0-2.5,1.3-4.1,3.5-4.1c1.8,0,2.9,0.9,2.9,2.4
				c0,1.1-0.7,1.8-2.1,2l-3.5,0.6c0.2,1.6,1.2,2.6,2.7,2.6c0.6,0,1.1,0,1.6-0.2l0.4-0.1c0.1,0,0.1,0,0.2,0.1l0.1,0.4
				c0,0.1,0,0.1-0.1,0.2L258.2,82.6z M257,78.4c1-0.2,1.5-0.6,1.5-1.4c0-1.1-0.8-1.7-2.2-1.7c-1.8,0-2.8,1.2-2.8,3.6L257,78.4z"/>
			<path class="st22" d="M262.2,76.1c0,0.1,0.1,0.1,0.2,0c0.6-0.9,1.5-1.5,2.8-1.5c1.8,0,2.8,1.3,2.8,3.2v4.7c0,0.1,0,0.1-0.1,0.1
				h-0.4c-0.1,0-0.1,0-0.1-0.1v-4.6c0-1.6-0.8-2.6-2.2-2.6c-1.9,0-2.9,1.4-2.9,3.7v3.5c0,0.1,0,0.1-0.1,0.1h-0.4
				c-0.1,0-0.1,0-0.1-0.1v-7.6c0-0.1,0-0.1,0.1-0.1h0.4c0.1,0,0.1,0,0.1,0.1V76.1z"/>
			<path class="st22" d="M277.2,78.7c0,2.5-1.3,4.1-3.5,4.1c-2.2,0-3.5-1.6-3.5-4.1c0-2.5,1.3-4.1,3.5-4.1
				C275.9,74.6,277.2,76.2,277.2,78.7z M270.9,78.7c0,2.1,1.1,3.4,2.8,3.4c1.8,0,2.8-1.3,2.8-3.4c0-2.2-1-3.4-2.8-3.4
				C272,75.3,270.9,76.6,270.9,78.7z"/>
		</g>
	</g>
</g>
</svg>
