<svg id="Capa_1" data-name="Capa 1" xmlns="http://www.w3.org/2000/svg" viewBox="0 0 291.17 102.63"><defs><style>.cls-1,.cls-3{fill:#7fbfea;}.cls-1{fill-rule:evenodd;}.cls-2{opacity:0.5;}</style></defs><path class="cls-1" d="M3.85,99.64s7.73-.26,17.16-15l31.2-54c1.87-3.25,6-5.89,9.28-5.89H75.23L40.64,84.65l-3,4.77C28.32,104.44,3.85,99.64,3.85,99.64Z"/><path class="cls-1" d="M287.31,3s-7.72.26-17.15,15C262.8,30.72,248,56.3,248,56.3c-1.88,3.25-6,5.88-9.29,5.88H225L250.52,18l3-4.77C262.84-1.81,287.31,3,287.31,3Z"/><path class="cls-1" d="M115.71,84.65H102l31.19-54c1.88-3.25,6-5.89,9.29-5.89h13.74L125,78.77C123.12,82,119,84.65,115.71,84.65Z"/><g class="cls-2"><path class="cls-1" d="M108.84,72.75,84.52,30.62c-1.88-3.25-6-5.89-9.29-5.89l-6.87,11.9L92.69,78.77c1.87,3.25,6,5.88,9.28,5.88Z"/></g><path class="cls-1" d="M183.7,62.18H170l18.23-31.56c1.87-3.25,6-5.89,9.28-5.89h13.74L193,56.3C191.11,59.55,187,62.18,183.7,62.18Z"/><g class="cls-2"><path class="cls-1" d="M176.83,50.28,165.48,30.62c-1.88-3.25-6-5.89-9.29-5.89l-6.87,11.9L160.67,56.3c1.88,3.25,6,5.88,9.29,5.88Z"/></g><g class="cls-2"><path class="cls-1" d="M231.85,50.28,220.5,30.62c-1.88-3.25-6-5.89-9.28-5.89l-6.88,11.9L215.7,56.3c1.87,3.25,6,5.88,9.28,5.88Z"/></g><path class="cls-3" d="M150.84,83.9a9.89,9.89,0,0,1-3.35.53,5.82,5.82,0,0,1,.12-11.64c3.61,0,6,2.23,6,5.56,0,1.31-.71,2-1.74,2s-1.49-.45-2.18-2c-.53-1.24-1.13-1.64-2.05-1.64a1.73,1.73,0,0,0-1.91,1.87,1.88,1.88,0,0,0,2.09,2,4.57,4.57,0,0,0,1.47-.25l.28-.07c.07,0,.12,0,.17.07a2.41,2.41,0,0,0,.33.3c.1.06.1.13,0,.16l-.54.17a5,5,0,0,1-1.69.28A2.49,2.49,0,0,1,145,78.55a2.36,2.36,0,0,1,2.6-2.53c1.17,0,2,.48,2.6,1.93s.91,1.73,1.63,1.73,1-.45,1-1.33c0-2.94-2.14-4.88-5.3-4.88a5.14,5.14,0,0,0-.12,10.28,11.32,11.32,0,0,0,3.17-.5l.86-.26c.08,0,.15,0,.16.08l.13.4a.1.1,0,0,1-.08.16Z"/><path class="cls-3" d="M157.37,83.94a2.22,2.22,0,0,1-.91,1.94l-.53.42a.11.11,0,0,1-.18,0l-.24-.33a.11.11,0,0,1,0-.18l.53-.4a1.58,1.58,0,0,0,.61-1.41V75.47h-.74a.12.12,0,0,1-.13-.13v-.4a.12.12,0,0,1,.13-.13h1.31a.12.12,0,0,1,.13.13Zm0-12.41c0,.37-.18.55-.52.55a.54.54,0,0,1,0-1.08A.48.48,0,0,1,157.37,71.53Z"/><path class="cls-3" d="M161,74.89a5.74,5.74,0,0,1,1.77-.25,2.94,2.94,0,0,1,3.09,3.23v4.69a.12.12,0,0,1-.13.13h-.38a.12.12,0,0,1-.13-.13v-.88c0-.22-.15-.18-.28,0a3.24,3.24,0,0,1-2.8,1.17,2.25,2.25,0,0,1-2.55-2.33c0-1.39,1-2.35,2.85-2.37h2.71v-.28a2.26,2.26,0,0,0-2.4-2.55,6.49,6.49,0,0,0-1.59.2l-.58.2a.12.12,0,0,1-.16-.1l-.13-.38a.13.13,0,0,1,.1-.17Zm1.44,3.93c-1.48,0-2.15.69-2.15,1.68s.66,1.69,1.87,1.69a2.79,2.79,0,0,0,3-3.09v-.28Z"/><path class="cls-3" d="M172.27,80.19a17.34,17.34,0,0,0-.84,2.38.14.14,0,0,1-.15.12h-.46a.14.14,0,0,1-.15-.12,14.15,14.15,0,0,0-.85-2.38L167.41,75c0-.08,0-.15.1-.15H168a.18.18,0,0,1,.17.1l2.21,4.85a13.5,13.5,0,0,1,.6,1.62c.05.12.15.12.2,0a13.65,13.65,0,0,1,.59-1.62L174,74.91a.15.15,0,0,1,.16-.1h.45c.1,0,.13.07.1.15Z"/><path class="cls-3" d="M177.3,74.89a5.74,5.74,0,0,1,1.77-.25,2.94,2.94,0,0,1,3.1,3.23v4.69a.12.12,0,0,1-.13.13h-.39a.12.12,0,0,1-.13-.13v-.88c0-.22-.15-.18-.28,0a3.23,3.23,0,0,1-2.8,1.17,2.25,2.25,0,0,1-2.54-2.33c0-1.39.95-2.35,2.84-2.37h2.72v-.28a2.26,2.26,0,0,0-2.4-2.55,6.43,6.43,0,0,0-1.59.2l-.58.2a.13.13,0,0,1-.17-.1l-.13-.38a.13.13,0,0,1,.1-.17Zm1.44,3.93c-1.47,0-2.15.69-2.15,1.68s.66,1.69,1.87,1.69a2.8,2.8,0,0,0,3-3.09v-.28Z"/><path class="cls-3" d="M185.41,76.12c0,.15.1.15.18,0a3.13,3.13,0,0,1,2.83-1.49c1.77,0,2.85,1.26,2.85,3.25v4.67a.12.12,0,0,1-.14.13h-.41a.12.12,0,0,1-.13-.13V77.92c0-1.62-.83-2.6-2.21-2.6-1.85,0-2.94,1.36-2.94,3.73v3.51a.12.12,0,0,1-.13.13h-.43a.12.12,0,0,1-.14-.13V74.94a.12.12,0,0,1,.14-.13h.39a.12.12,0,0,1,.14.13Z"/><path class="cls-3" d="M200.26,82.56a.12.12,0,0,1-.13.13h-.38a.12.12,0,0,1-.13-.13V81.4c0-.15-.1-.19-.2,0a3.1,3.1,0,0,1-2.63,1.47c-2.09,0-3.33-1.57-3.33-4.1s1.29-4.09,3.49-4.11a4.63,4.63,0,0,1,2.11.45l.51.25V71.22a.12.12,0,0,1,.13-.13h.43a.12.12,0,0,1,.13.13Zm-1.44-6.86a4.1,4.1,0,0,0-1.85-.38c-1.75,0-2.83,1.28-2.81,3.43s1,3.43,2.65,3.43c1.85,0,2.76-1.63,2.76-3.73V76.07Z"/><path class="cls-3" d="M206.73,75.19a.12.12,0,0,1-.13.13c-1.77.09-2.9,1.67-2.9,4.34v2.9a.12.12,0,0,1-.13.13h-.43a.12.12,0,0,1-.13-.13V74.94a.12.12,0,0,1,.13-.13h.4a.12.12,0,0,1,.13.13v1.41c0,.11.11.13.18,0a3.12,3.12,0,0,1,2.75-1.74.12.12,0,0,1,.13.14Z"/><path class="cls-3" d="M213.56,82.59a6.09,6.09,0,0,1-1.83.26c-2.19,0-3.51-1.57-3.51-4.1s1.34-4.11,3.51-4.11c1.82,0,2.89.88,2.89,2.37,0,1.09-.69,1.76-2.1,2l-3.54.6a2.65,2.65,0,0,0,2.75,2.57,5.09,5.09,0,0,0,1.64-.22l.39-.13a.14.14,0,0,1,.18.1l.12.38c0,.08,0,.15-.08.16Zm-1.17-4.22c1-.18,1.54-.65,1.54-1.36,0-1.08-.81-1.69-2.2-1.69-1.77,0-2.8,1.23-2.82,3.64Z"/><path class="cls-3" d="M218.29,78.65a1.93,1.93,0,0,1-1.69-2c0-1.26,1-2,2.75-2a6.61,6.61,0,0,1,1.87.25l.62.2c.08,0,.11.08.08.17l-.13.38a.14.14,0,0,1-.17.08l-.58-.18a6.2,6.2,0,0,0-1.67-.22c-1.29,0-2.07.53-2.07,1.36,0,.68.38,1.11,1.24,1.36l2,.59c1.22.33,1.74,1,1.74,2,0,1.39-1.08,2.21-2.95,2.21a6.74,6.74,0,0,1-2.5-.41l-.33-.13c-.08,0-.12-.1-.08-.17l.16-.36a.12.12,0,0,1,.17-.07l.33.13a5.83,5.83,0,0,0,2.25.34c1.42,0,2.25-.58,2.25-1.54,0-.72-.38-1.15-1.26-1.39Z"/><path class="cls-3" d="M225.24,76.1c0,.13.1.15.18,0a2.91,2.91,0,0,1,2.67-1.48,2.41,2.41,0,0,1,2.35,1.69c.05.15.18.13.25,0a3,3,0,0,1,2.86-1.71c1.62,0,2.63,1.26,2.63,3.25v4.67a.12.12,0,0,1-.13.13h-.43a.12.12,0,0,1-.13-.13V77.92c0-1.62-.72-2.6-2-2.6-2,0-2.81,1.57-2.81,3.73v3.51a.12.12,0,0,1-.13.13h-.42a.12.12,0,0,1-.13-.13V77.9c0-1.6-.74-2.58-2-2.58-2,0-2.78,1.57-2.78,3.73v3.51a.12.12,0,0,1-.13.13h-.43a.12.12,0,0,1-.13-.13V74.94a.12.12,0,0,1,.13-.13h.4a.12.12,0,0,1,.13.13Z"/><path class="cls-3" d="M245.38,78.75c0,2.51-1.34,4.1-3.51,4.1s-3.51-1.59-3.51-4.1,1.34-4.11,3.51-4.11S245.38,76.22,245.38,78.75Zm-6.33,0c0,2.13,1.06,3.43,2.82,3.43s2.79-1.3,2.79-3.43-1-3.43-2.79-3.43S239.05,76.6,239.05,78.75Z"/><path class="cls-3" d="M251.35,75.19a.12.12,0,0,1-.14.13c-1.77.09-2.89,1.67-2.89,4.34v2.9a.12.12,0,0,1-.14.13h-.43a.12.12,0,0,1-.13-.13V74.94a.12.12,0,0,1,.13-.13h.4a.12.12,0,0,1,.13.13v1.41c0,.11.12.13.19,0a3.09,3.09,0,0,1,2.74-1.74.13.13,0,0,1,.14.14Z"/><path class="cls-3" d="M258.18,82.59a6.2,6.2,0,0,1-1.84.26c-2.18,0-3.51-1.57-3.51-4.1s1.34-4.11,3.51-4.11c1.82,0,2.9.88,2.9,2.37,0,1.09-.7,1.76-2.1,2l-3.55.6a2.67,2.67,0,0,0,2.75,2.57A5,5,0,0,0,258,82l.4-.13a.14.14,0,0,1,.18.1l.12.38a.11.11,0,0,1-.09.16ZM257,78.37c1-.18,1.54-.65,1.54-1.36,0-1.08-.81-1.69-2.2-1.69-1.77,0-2.79,1.23-2.81,3.64Z"/><path class="cls-3" d="M262.16,76.12c0,.15.1.15.19,0a3.13,3.13,0,0,1,2.83-1.49c1.77,0,2.84,1.26,2.84,3.25v4.67a.12.12,0,0,1-.13.13h-.41a.12.12,0,0,1-.14-.13V77.92c0-1.62-.82-2.6-2.2-2.6-1.85,0-2.94,1.36-2.94,3.73v3.51a.12.12,0,0,1-.14.13h-.43a.12.12,0,0,1-.13-.13V74.94a.12.12,0,0,1,.13-.13h.4a.12.12,0,0,1,.13.13Z"/><path class="cls-3" d="M277.24,78.75c0,2.51-1.34,4.1-3.51,4.1s-3.51-1.59-3.51-4.1,1.34-4.11,3.51-4.11S277.24,76.22,277.24,78.75Zm-6.33,0c0,2.13,1.06,3.43,2.82,3.43s2.8-1.3,2.8-3.43-1-3.43-2.8-3.43S270.91,76.6,270.91,78.75Z"/></svg>