<?xml version="1.0" encoding="UTF-8"?>
<!DOCTYPE svg PUBLIC "-//W3C//DTD SVG 1.1//EN" "http://www.w3.org/Graphics/SVG/1.1/DTD/svg11.dtd">
<!-- Creator: CorelDRAW 2018 (64 Bit) -->
<svg xmlns="http://www.w3.org/2000/svg" xml:space="preserve" width="89.1326mm" height="89.1326mm" version="1.1" style="shape-rendering:geometricPrecision; text-rendering:geometricPrecision; image-rendering:optimizeQuality; fill-rule:evenodd; clip-rule:evenodd"
viewBox="0 0 11231.81 11231.81"
 xmlns:xlink="http://www.w3.org/1999/xlink">
 <defs>
  <style type="text/css">
   <![CDATA[
    .fil0 {fill:#3459CE}
    .fil1 {fill:#FEFEFE;fill-rule:nonzero}
   ]]>
  </style>
 </defs>
 <g id="Capa_x0020_1">
  <metadata id="CorelCorpID_0Corel-Layer"/>
  <rect class="fil0" width="11231.81" height="11231.81"/>
  <g id="_2318347199408">
   <path class="fil1" d="M7380.6 4839.05l0 1382.87c0,95.48 78.46,172.89 175.47,172.89 97.03,0 175.48,-77.41 175.48,-172.89l0 -1382.87 -350.94 0 -0.01 0zm175.74 -172.89c-97.03,0 -175.48,-77.41 -175.48,-172.89 0,-95.48 78.46,-172.89 175.48,-172.89 97.02,0 175.47,77.41 175.47,172.89 0,95.48 -79.22,172.89 -175.47,172.89z"/>
   <path class="fil1" d="M6230.65 4839.05l964.06 0 2.32 1382.09c0,95.48 -78.46,172.89 -175.47,172.89 -97.03,0 -175.48,-77.41 -175.48,-172.89l0 -1036.3 -613.88 0c-242.06,0 -438.42,193.28 -438.42,431.71 0,238.44 196.11,431.71 438.42,431.71l262.17 0c97.02,0 175.47,77.41 175.47,172.89 0,95.48 -78.46,172.89 -175.47,172.89l-263.47 0c-435.32,0 -788.59,-347.08 -789.37,-776.72 -1.55,-429.65 352.48,-778.28 789.37,-778.28l-0.24 0.01z"/>
   <path class="fil1" d="M4468.45 4839.83l-968.44 -0.76 0 132.63c0,117.42 97.03,212.9 216.25,212.9l750.91 0c242.06,0 438.42,193.28 438.42,431.71 0,238.44 -196.11,431.71 -438.42,431.71l-437.64 0 -146.58 0c-112.52,0 -203.6,89.81 -203.6,200.5l0 490.02c0,95.48 78.46,172.89 175.47,172.89 97.03,0 175.48,-77.41 175.48,-172.89l0 -345.02 438.41 0c435.32,0 788.59,-347.83 788.59,-776.72 -0.77,-428.87 -353.26,-776.73 -788.59,-777.48l-0.26 0.52z"/>
  </g>
 </g>
</svg>
